<?xml version="1.0" encoding="utf-8"?>
<!-- Generator: Adobe Illustrator 20.1.0, SVG Export Plug-In . SVG Version: 6.00 Build 0)  -->
<svg version="1.1" id="Layer_1" xmlns="http://www.w3.org/2000/svg" xmlns:xlink="http://www.w3.org/1999/xlink" x="0px" y="0px"
	 viewBox="0 0 864 864" style="enable-background:new 0 0 864 864;" xml:space="preserve">
<style type="text/css">
	.st0{fill:#BE1622;}
	.st1{fill:#E30613;}
	.st2{fill:#E6717E;}
	.st3{fill:#E31021;}
	.st4{fill:#9C1857;}
	.st5{fill:#CC666E;}
	.st6{fill:#F39200;}
	.st7{fill:#99000B;}
	.st8{fill:#FFFFFF;}
	.st9{fill:#C94684;}
	.st10{fill:#BF2E61;}
	.st11{fill:#D60B52;}
	.st12{fill:#D9000F;}
	.st13{fill:#1D1D1B;}
	.st14{fill:#ED4E7B;}
	.st15{fill:#CC000F;}
	.st16{fill:#801A00;}
	.st17{fill:#B3000D;}
</style>
<g>
	<path class="st0" d="M509,193.9c2.2-1.1,4.4-2.3,6.8-3.4c2.4-1.1,4.7-2.2,7-3.1c2.3-0.9,4.3-1.9,6.2-2.5c1.8-0.7,3.3-1.2,4.4-1.6
		c1.1-0.4,1.7-0.6,1.7-0.6s1-4.3,2.1-8.6c1.1-4.4,2.5-8.6,2.5-8.6s1.4-0.4,3.5-1c2.1-0.6,4.9-1.3,7.7-2c0.7-0.2,1.4-0.3,2.1-0.5
		c0.7-0.1,1.4-0.3,2-0.4c1.3-0.3,2.6-0.5,3.6-0.8c1.1-0.2,1.9-0.4,2.6-0.5c0.6-0.1,1-0.2,1-0.2c2.6,2.9,5.5,5.4,8.5,7.6
		c3,2.3,5.9,4.2,8.5,5.7c2.6,1.6,4.8,2.9,6.4,3.7c1.6,0.8,2.6,1.3,2.6,1.3s0.9-0.6,2.4-1.7c1.5-1.1,3.5-2.7,5.9-4.6
		c4.7-3.9,10.6-9.1,14.9-15.6c0,0,1.7,0.1,4.2,0.3c1.3,0.1,2.7,0.2,4.3,0.3c1.6,0.1,3.3,0.3,4.9,0.5c1.7,0.2,3.4,0.4,4.9,0.5
		c1.6,0.2,3,0.5,4.3,0.7c2.5,0.4,4.2,0.6,4.2,0.6l-2.5,14.4c0,0,0.8-0.2,2.1-0.5c1.4-0.3,3.4-0.7,5.7-1.1c0.6-0.1,1.2-0.2,1.9-0.4
		c0.6-0.1,1.3-0.2,2-0.3c1.4-0.2,2.8-0.4,4.4-0.6c3.1-0.5,6.3-0.8,9.6-1.1c6.6-0.6,13.4-0.8,18.5-0.7c1.3,0,2.5,0,3.5,0
		c1,0.1,2,0.1,2.7,0.1c1.5,0.1,2.4,0.1,2.4,0.1s-0.6-0.6-1.7-1.7c-0.5-0.5-1.2-1.2-2-2c-0.8-0.7-1.7-1.5-2.6-2.4
		c-3.9-3.6-9.3-8.2-15.1-12.6c-2.9-2.1-5.8-4.4-8.7-6.2c-1.4-1-2.8-1.9-4.2-2.7c-0.7-0.4-1.3-0.9-1.9-1.3c-0.6-0.4-1.3-0.8-1.9-1.1
		c-2.4-1.4-4.4-2.6-5.8-3.5c-1.4-0.8-2.2-1.3-2.2-1.3l-2.5,14.4c0,0-1.5-0.2-3.7-0.6c-2.2-0.3-5.2-0.9-8.2-1.1
		c-1.5-0.2-3-0.3-4.4-0.5c-0.7-0.1-1.4-0.2-2-0.2c-0.6,0-1.3-0.1-1.8-0.1c-2.3-0.1-3.8-0.2-3.8-0.2c0.2-1.1,0.4-2.2,0.5-3.4
		c0.3-5.2-1-9.2-3.5-12.2c-2.5-2.9-6.1-4.5-9.8-4.9c-1.9-0.2-3.8,0-5.7,0.5c-1.9,0.5-3.7,1.3-5.3,2.5c-3.2,2.4-5.7,6-6.6,10.8
		c-1.6-4.7-4.6-7.8-8.1-9.7c-3.5-1.9-7.6-2.2-11.3-1.5c-3.7,0.8-7,3-9.1,6.2c-2.1,3.2-2.9,7.5-1.8,12.5c0.2,1.1,0.6,2.2,1,3.3
		c0,0-1.2,0.3-3.1,0.6c-1.8,0.4-4.3,1-6.7,1.6c-1.2,0.3-2.4,0.6-3.6,0.9c-1.1,0.3-2.2,0.6-3.1,0.9c-1.8,0.5-3,0.9-3,0.9
		s-3.6-2.9-7.3-5.6c-3.7-2.7-7.6-5.4-7.6-5.4s-0.7,0.2-2,0.7c-1.3,0.5-3.1,1.2-5.3,2c-2.2,0.8-4.7,1.9-7.4,3
		c-2.7,1.1-5.5,2.4-8.4,3.7c-2.9,1.3-5.6,2.7-8.2,4.1c-2.6,1.3-5,2.7-7.1,3.8c-2.1,1.1-3.8,2.1-4.9,2.8c-1.2,0.7-1.8,1.1-1.8,1.1
		s1.5,0.6,3.6,1.5c2.2,0.9,5,2.2,7.9,3.5c2.8,1.3,5.6,2.7,7.6,3.7c2.1,1.1,3.4,1.8,3.4,1.8s-0.2,1.5-0.4,3.8
		c-0.2,2.3-0.5,5.3-0.7,8.4c-0.2,3-0.3,6-0.4,8.2c0,2.2-0.1,3.7-0.1,3.7s0.6-0.3,1.5-0.9c1-0.6,2.4-1.4,4.1-2.3
		C504.8,196.1,506.8,194.9,509,193.9z"/>
	<path class="st5" d="M472.3,211.5c2.4-2,3.7-4.9,3.8-8.2c0.1-3.3-0.8-6.9-3.1-10.1c-2.3-3.1-5.5-5.2-8.8-5.8
		c-3.4-0.7-6.9,0.1-9.7,2.4c-2.8,2.3-4.2,5.6-4.2,9c0,3.4,1.3,7,4,9.8c2.6,2.9,6,4.5,9.2,5.1C466.7,214.1,469.9,213.5,472.3,211.5z"
		/>
	<path class="st5" d="M706.7,196.4c1.3,0.8,2.7,1.4,4.2,1.6c1.5,0.2,3.1,0.1,4.7-0.4c3.2-0.9,6.4-2.8,8.7-6c2.3-3.1,3.4-6.8,3-10.2
		c-0.2-1.7-0.7-3.3-1.6-4.8c-0.9-1.5-2-2.8-3.6-3.8c-3.1-1.9-6.6-2.4-9.9-1.3c-3.3,1-6.3,3.4-8.2,6.8c-1.9,3.4-2.5,7.1-2,10.3
		C702.6,191.9,704.1,194.8,706.7,196.4z"/>
	<path class="st0" d="M824.6,359.1c-0.2-3.8-1.6-7.5-4.4-10c-2.8-2.6-6.8-4.1-11.9-4c-1.1,0-2.3,0.1-3.4,0.3c0,0,0-0.3,0-0.9
		c0-0.5,0-1.3-0.1-2.3c-0.1-1.9-0.1-4.4-0.3-6.8c-0.3-5-0.8-9.9-0.8-9.9s0.9-0.8,2.2-1.9c1.3-1.1,3-2.7,4.7-4.3
		c1.7-1.6,3.4-3.2,4.6-4.4c1.3-1.2,2.1-2.1,2.1-2.1s-0.1-0.8-0.3-2.1c-0.2-1.3-0.5-3.3-0.9-5.6c-0.8-4.6-2.1-10.7-3.7-16.8
		c-3-12.2-7.7-24-7.7-24s-0.8,1.3-2.1,3.3c-1.3,2-3,4.6-4.8,7.2c-1.8,2.5-3.6,5-5.1,6.9c-1.4,1.8-2.4,3-2.4,3s-1.5-0.4-3.7-1.1
		c-2.2-0.6-5.1-1.4-8.1-2.2c-2.9-0.7-5.8-1.4-8.1-1.8c-2.2-0.4-3.7-0.7-3.7-0.7s3.8,9.5,6.3,19.5c1.3,5,2.4,10,3,13.9
		c0.4,1.9,0.6,3.5,0.8,4.6c0.2,1.1,0.3,1.8,0.3,1.8s1,0.4,2.5,1.1c1.5,0.7,3.5,1.6,5.6,2.6c2,1,4,2,5.5,2.8c1.5,0.8,2.5,1.3,2.5,1.3
		s0.2,1.4,0.3,3.6c0.1,1.1,0.2,2.3,0.3,3.7c0.1,1.3,0.2,2.8,0.2,4.2c0.3,5.8,0.3,11.5,0.3,11.5c-3.3,2-6.3,4.5-9,7
		c-1.4,1.2-2.6,2.5-3.8,3.7c-1.2,1.2-2.4,2.4-3.4,3.6c-1,1.1-1.9,2.2-2.7,3.2c-0.4,0.5-0.8,0.9-1.1,1.4c-0.4,0.4-0.7,0.8-1,1.2
		c-1.2,1.4-1.8,2.3-1.8,2.3s0.4,1,1.2,2.6c0.4,0.8,0.9,1.8,1.5,2.9c0.6,1.1,1.2,2.3,1.9,3.7c0.7,1.3,1.6,2.7,2.5,4.2
		c0.9,1.5,1.9,3,2.9,4.5c2.1,3,4.5,6.1,7.3,8.8c0,0-0.1,0.4-0.2,1.1c-0.2,0.7-0.4,1.7-0.8,3c-0.3,1.2-0.7,2.7-1.1,4.2
		c-0.4,1.5-0.8,3.2-1.3,4.8c-1,3.2-1.9,6.5-2.7,8.9c-0.8,2.4-1.4,4-1.4,4l-13.8-4.8c0,0,0,0.8,0.1,2.2c0,0.7,0.1,1.6,0.1,2.6
		c0,1,0,2.1,0.1,3.3c0,2.4,0.1,5.3,0.1,8.5c-0.1,3.1-0.2,6.5-0.3,9.8c-0.4,6.7-1,13.5-1.7,18.6c-0.3,2.6-0.6,4.7-0.8,6.2
		c-0.2,1.5-0.4,2.3-0.4,2.3s0.7-0.5,1.9-1.5c1.2-1,2.8-2.4,4.8-4.1c4-3.4,9.1-8.2,14.2-13.3c2.5-2.6,5-5.2,7.3-7.6
		c2.3-2.5,4.4-4.9,6.2-7c0.9-1,1.7-2,2.5-2.9c0.7-0.9,1.3-1.6,1.8-2.3c1-1.3,1.6-2,1.6-2l-13.8-4.8c0,0,0.5-1.4,1.2-3.6
		c0.2-0.5,0.4-1.1,0.6-1.7c0.2-0.6,0.4-1.3,0.6-1.9c0.4-1.4,0.8-2.8,1.3-4.2c0.4-1.4,0.9-2.9,1.3-4.2c0.3-1.4,0.7-2.6,0.9-3.7
		c0.6-2.2,0.9-3.6,0.9-3.6c1,0.4,2.1,0.8,3.2,1.1c5,1.2,9.3,0.6,12.6-1.3c3.2-1.9,5.5-5.1,6.5-8.8c0.9-3.7,0.6-7.7-1-11.3
		c-1.7-3.6-4.9-6.7-9.5-8.5c4.8-0.8,8.7-3.1,11.1-6.2c1.2-1.6,2.1-3.3,2.7-5.2c0.3-0.9,0.5-1.9,0.7-2.8
		C824.7,361,824.7,360,824.6,359.1z"/>
	<path class="st5" d="M759.3,243.5c-0.5,1.6-0.7,3.1-0.6,4.7c0.1,1.5,0.5,3,1.3,4.3c1.6,2.7,4.2,4.4,7.5,5c3.2,0.7,7,0.3,10.4-1.4
		c3.5-1.7,6-4.5,7.2-7.8c1.2-3.2,1-6.9-0.8-10c-0.9-1.6-2.1-2.8-3.6-3.8c-1.4-1-3-1.6-4.7-1.9c-3.4-0.6-7.1,0.2-10.3,2.4
		C762.5,237.3,760.3,240.4,759.3,243.5z"/>
	<path class="st5" d="M755,488.4c-3.3-2.1-6.9-2.8-10.2-2.5c-3.3,0.4-6.3,1.9-8.1,4.6c-0.9,1.3-1.5,2.8-1.7,4.4
		c-0.2,1.5-0.1,3.2,0.3,4.8c0.8,3.2,2.8,6.4,6,8.7s6.8,3.3,10.1,3c1.7-0.2,3.3-0.7,4.8-1.5c1.5-0.8,2.8-1.9,3.7-3.4
		c2-2.9,2.4-6.4,1.5-9.7C760.5,493.6,758.3,490.5,755,488.4z"/>
	<path class="st5" d="M744,230.1c4.7-0.1,9.8-1.7,14.2-5.2c4.4-3.4,7.2-8.2,7.8-13.1c0.7-5-0.9-10.2-4.6-14.1
		c-3.7-3.9-8.8-5.6-13.8-5.2c-5,0.4-9.9,3-13.5,7.2c-3.7,4.2-5.5,9.3-5.8,13.9c-0.3,4.7,0.9,9,3.8,12.1
		C735.1,228.7,739.4,230.1,744,230.1z"/>
	<path class="st5" d="M733.5,518.5c-4.4-3.5-9.6-5.1-14.3-5c-4.7,0.1-9.2,1.8-12.1,5.3c-3.1,3.4-4,8.1-3.4,12.8
		c0.6,4.7,3.1,9.6,7.2,13.4c4.1,3.8,9.2,5.8,14.1,5.9c4.9,0.1,9.6-1.9,12.9-5.7c3.2-3.9,4.5-8.8,3.7-13.7
		C740.6,526.6,737.9,521.9,733.5,518.5z"/>
	<path class="st0" d="M662,592.5c0,0-0.6-6.1-1.4-12.2c-0.8-6.1-1.6-12.1-1.6-12.1s-2.1,1.8-5.2,4.5c-1.5,1.4-3.4,2.9-5.4,4.6
		c-2,1.7-4.1,3.5-6.2,5.2c-2.1,1.8-4.3,3.5-6.3,5.1c-2,1.6-3.9,3.1-5.6,4.4c-1.6,1.3-3,2.4-3.9,3.1c-1,0.7-1.5,1.2-1.5,1.2
		s0.3,4.5,0.6,9c0.1,2.3,0.3,4.5,0.4,6.2c0.1,1.7,0.1,2.8,0.1,2.8s-4.7,3.5-9.4,7c-4.8,3.4-9.5,6.8-9.5,6.8c-3.6-1.5-7.4-2.4-11.1-3
		c-3.7-0.6-7.4-0.9-10.6-1c-6.4-0.2-10.9,0.3-10.9,0.3s-2.3,4-4.5,10c-1.1,3-2.3,6.4-3.1,10.1c-0.9,3.7-1.5,7.5-1.4,11.4
		c0,0-1.5,0.9-3.6,2.3c-2.2,1.4-5.1,3.2-8,5c-5.9,3.5-11.8,7.1-11.8,7.1l-7.4-12.6c0,0-2.1,2.7-5.3,6.7c-1.6,2-3.5,4.3-5.5,6.8
		c-2,2.5-4.2,5.1-6.4,7.8c-4.4,5.3-8.9,10.5-12.3,14.5c-3.4,3.9-5.7,6.5-5.7,6.5s3.4-0.4,8.6-1c5.1-0.7,12.1-1.5,19-2.6
		c3.5-0.5,6.9-1,10.2-1.5c3.2-0.5,6.3-1,8.9-1.5c5.2-0.9,8.7-1.5,8.7-1.5l-7.4-12.6c0,0,5.1-3,10.1-6.1c2.5-1.5,5.1-3,6.9-4.2
		c1.9-1.2,3.1-2,3.1-2c0.4,1,1,2,1.6,3c5.4,8.8,13.7,10.2,20,7c6.2-3.3,10.2-11.1,7-20.3c7.3,6.5,16,5.8,21.5,1.4
		c5.4-4.5,7.3-12.8,1.2-21.1c-0.7-0.9-1.4-1.8-2.2-2.6c0,0,4-2.9,7.9-5.7c3.9-2.9,7.9-5.8,7.9-5.8s1.1,0.4,2.7,0.9
		c1.6,0.5,3.8,1.2,6,1.9c4.4,1.4,8.7,2.8,8.7,2.8s0.6-0.4,1.6-1.2c1-0.8,2.4-1.9,4.2-3.3c1.7-1.4,3.7-2.9,5.9-4.7
		c2.1-1.7,4.4-3.6,6.7-5.5c2.3-1.9,4.5-3.8,6.6-5.5c2.1-1.8,4.1-3.4,5.7-4.9c3.3-2.9,5.5-4.8,5.5-4.8s-6-1.4-12-3
		C667.9,594.1,662,592.5,662,592.5z"/>
	<path class="st5" d="M702,554.2c-2.8-2.7-6.3-4.2-9.6-4.5c-3.3-0.3-6.5,0.7-8.8,3c-2.3,2.3-3.4,5.5-3.2,8.8
		c0.2,3.3,1.6,6.8,4.3,9.6c2.7,2.8,6.1,4.5,9.5,4.8c3.4,0.3,6.7-0.7,9.2-3.1c2.5-2.4,3.5-5.8,3.3-9.1
		C706.4,560.3,704.8,556.9,702,554.2z"/>
	<path class="st5" d="M466,700.3c-5.9,2.9-8.1,10.8-4.8,17.9c3.2,7.1,10.9,10.4,17.1,7.5c6.1-3,8.2-11.1,4.8-18
		C479.5,700.6,471.9,697.4,466,700.3z"/>
	<path class="st0" d="M387.4,165.6c0,0-0.7-0.4-1.8-1.1c-1.2-0.7-2.9-1.7-4.9-2.8c-2.1-1.1-4.4-2.5-7.1-3.8
		c-2.6-1.3-5.4-2.8-8.2-4.1c-2.8-1.3-5.7-2.7-8.4-3.7c-2.7-1.1-5.2-2.2-7.4-3c-2.2-0.8-4-1.5-5.3-2c-1.3-0.5-2-0.7-2-0.7
		s-3.9,2.7-7.6,5.4c-3.7,2.7-7.3,5.6-7.3,5.6s-1.2-0.3-3-0.9c-0.9-0.3-1.9-0.6-3.1-0.9c-1.1-0.3-2.3-0.6-3.6-0.9
		c-2.4-0.6-4.8-1.2-6.7-1.6c-1.8-0.4-3.1-0.6-3.1-0.6c0.4-1.1,0.7-2.1,1-3.3c1-5,0.3-9.3-1.8-12.5c-2.1-3.1-5.4-5.3-9.1-6.2
		c-3.7-0.8-7.8-0.5-11.3,1.5c-3.5,1.9-6.5,5-8.1,9.7c-1-4.8-3.4-8.4-6.6-10.8c-1.6-1.2-3.4-2-5.3-2.5c-1.9-0.5-3.8-0.7-5.7-0.5
		c-3.8,0.4-7.3,2-9.8,4.9c-2.5,2.9-3.9,7-3.5,12.2c0.1,1.1,0.2,2.3,0.5,3.4c0,0-1.5,0.1-3.8,0.2c-0.6,0-1.2,0.1-1.8,0.1
		c-0.6,0.1-1.3,0.1-2,0.2c-1.4,0.2-2.9,0.3-4.4,0.5c-3,0.3-6,0.8-8.2,1.1c-2.2,0.3-3.7,0.6-3.7,0.6l-2.5-14.4c0,0-0.8,0.4-2.2,1.3
		c-1.4,0.8-3.4,2-5.8,3.5c-0.6,0.4-1.2,0.7-1.9,1.1c-0.6,0.4-1.3,0.8-2,1.3c-1.3,0.9-2.7,1.8-4.2,2.7c-2.9,1.8-5.8,4.1-8.7,6.2
		c-5.8,4.3-11.2,9-15.1,12.6c-1,0.9-1.9,1.7-2.6,2.4c-0.8,0.8-1.4,1.4-2,2c-1.1,1.1-1.7,1.7-1.7,1.7s0.9-0.1,2.4-0.1
		c0.8,0,1.7-0.1,2.7-0.1c1.1,0,2.2,0,3.5,0c5.1-0.1,11.9,0.1,18.5,0.7c3.3,0.3,6.6,0.6,9.6,1.1c1.5,0.2,3,0.4,4.4,0.6
		c0.7,0.1,1.4,0.2,2,0.3c0.6,0.1,1.3,0.2,1.9,0.4c2.4,0.5,4.3,0.9,5.7,1.1c1.4,0.3,2.1,0.5,2.1,0.5l-2.5-14.4c0,0,1.7-0.3,4.2-0.6
		c1.3-0.2,2.7-0.4,4.3-0.7c1.6-0.2,3.3-0.4,4.9-0.5c1.7-0.2,3.4-0.4,4.9-0.5c1.6-0.1,3.1-0.2,4.3-0.3c2.5-0.2,4.2-0.3,4.2-0.3
		c4.3,6.5,10.3,11.6,14.9,15.6c2.3,1.9,4.4,3.5,5.9,4.6c1.5,1.1,2.4,1.7,2.4,1.7s1-0.5,2.6-1.3c1.6-0.8,3.9-2.1,6.4-3.7
		c2.6-1.6,5.5-3.5,8.5-5.7c2.9-2.2,5.9-4.7,8.5-7.6c0,0,0.4,0.1,1,0.2c0.6,0.1,1.5,0.3,2.6,0.5c1.1,0.2,2.3,0.5,3.6,0.8
		c0.7,0.1,1.3,0.3,2,0.4c0.7,0.2,1.4,0.3,2.1,0.5c2.8,0.7,5.6,1.3,7.7,2c2.1,0.6,3.5,1,3.5,1s1.4,4.3,2.5,8.6
		c1.2,4.3,2.1,8.6,2.1,8.6s0.6,0.2,1.7,0.6c1.1,0.4,2.6,1,4.4,1.6c1.8,0.6,3.9,1.6,6.2,2.5c2.3,0.9,4.6,2,7,3.1
		c2.4,1,4.7,2.3,6.8,3.4c2.2,1.1,4.1,2.2,5.8,3.1c1.7,0.9,3.1,1.7,4.1,2.3c1,0.6,1.5,0.9,1.5,0.9s0-1.5-0.1-3.7
		c0-2.3-0.2-5.2-0.4-8.2c-0.2-3-0.5-6.1-0.7-8.4c-0.2-2.3-0.4-3.8-0.4-3.8s1.4-0.7,3.4-1.8c2-1,4.8-2.4,7.6-3.7
		c2.8-1.3,5.7-2.6,7.9-3.5C386,166.2,387.4,165.6,387.4,165.6z"/>
	<path class="st5" d="M409.5,189.7c-2.8-2.3-6.3-3-9.7-2.4c-3.4,0.7-6.6,2.7-8.8,5.8c-2.3,3.2-3.3,6.8-3.1,10.1
		c0.1,3.3,1.4,6.3,3.8,8.2c2.4,2,5.6,2.6,8.8,2.1c3.2-0.5,6.6-2.2,9.2-5.1c2.6-2.9,4-6.4,4-9.8C413.7,195.3,412.3,191.9,409.5,189.7
		z"/>
	<path class="st5" d="M148.3,197.6c1.6,0.4,3.2,0.6,4.7,0.4c1.5-0.2,2.9-0.8,4.2-1.6c2.6-1.6,4.1-4.5,4.6-7.8
		c0.5-3.2-0.1-6.9-2-10.3s-4.9-5.8-8.2-6.8c-3.3-1-6.9-0.6-9.9,1.3c-1.5,0.9-2.7,2.3-3.6,3.8c-0.9,1.5-1.4,3.1-1.6,4.8
		c-0.4,3.4,0.6,7.1,3,10.2C142,194.8,145.1,196.7,148.3,197.6z"/>
	<path class="st0" d="M97.8,464.8c-0.7-5.1-1.3-11.9-1.7-18.6c-0.1-3.3-0.2-6.7-0.3-9.8c0-3.1,0-6,0.1-8.5c0-1.2,0-2.3,0.1-3.3
		c0.1-1,0.1-1.9,0.1-2.6c0.1-1.4,0.1-2.2,0.1-2.2l-13.8,4.8c0,0-0.6-1.6-1.4-4c-0.8-2.4-1.7-5.7-2.7-8.9c-0.5-1.6-0.9-3.3-1.3-4.8
		c-0.4-1.5-0.8-3-1.1-4.2c-0.3-1.2-0.6-2.3-0.8-3c-0.1-0.7-0.2-1.1-0.2-1.1c2.8-2.7,5.2-5.7,7.3-8.8c1-1.5,2-3,2.9-4.5
		c0.9-1.5,1.7-2.9,2.5-4.2c0.7-1.3,1.4-2.6,1.9-3.7c0.6-1.1,1.1-2.1,1.5-2.9c0.8-1.6,1.2-2.6,1.2-2.6s-0.6-0.9-1.8-2.3
		c-0.3-0.4-0.6-0.7-1-1.2c-0.3-0.4-0.7-0.9-1.1-1.4c-0.8-1-1.7-2-2.7-3.2c-1-1.1-2.1-2.3-3.4-3.6c-1.2-1.2-2.4-2.5-3.8-3.7
		c-2.7-2.5-5.8-5-9-7c0,0,0-5.8,0.3-11.5c0.1-1.4,0.2-2.9,0.2-4.2c0.1-1.3,0.2-2.6,0.3-3.7c0.2-2.2,0.3-3.6,0.3-3.6s1-0.5,2.5-1.3
		c1.5-0.8,3.5-1.8,5.5-2.8c2-1,4-1.9,5.6-2.6c1.5-0.7,2.5-1.1,2.5-1.1s0.1-0.6,0.3-1.8c0.2-1.1,0.4-2.7,0.8-4.6
		c0.7-3.8,1.8-8.9,3-13.9c2.5-10,6.3-19.5,6.3-19.5s-1.5,0.3-3.7,0.7c-2.2,0.4-5.1,1.1-8.1,1.8c-3,0.7-5.9,1.5-8.1,2.2
		c-2.2,0.7-3.7,1.1-3.7,1.1s-0.9-1.2-2.4-3c-1.4-1.8-3.3-4.3-5.1-6.9c-1.8-2.5-3.6-5.2-4.8-7.2c-1.3-2-2.1-3.3-2.1-3.3
		s-4.7,11.8-7.7,24c-1.6,6.1-2.9,12.2-3.7,16.8c-0.4,2.3-0.7,4.2-0.9,5.6c-0.2,1.3-0.3,2.1-0.3,2.1s0.8,0.8,2.1,2.1
		c1.3,1.2,2.9,2.8,4.6,4.4c1.7,1.6,3.4,3.1,4.7,4.3c1.3,1.1,2.2,1.9,2.2,1.9s-0.5,5-0.8,9.9c-0.2,2.5-0.3,5-0.3,6.8
		c0,0.9-0.1,1.7-0.1,2.3c0,0.5,0,0.9,0,0.9c-1.1-0.2-2.2-0.3-3.4-0.3c-5.2-0.1-9.2,1.4-11.9,4c-2.8,2.6-4.2,6.2-4.4,10
		c0,0.9,0,1.9,0.1,2.9c0.1,0.9,0.4,1.9,0.7,2.8c0.6,1.8,1.5,3.6,2.7,5.2c2.4,3.1,6.2,5.4,11.1,6.2c-4.6,1.8-7.7,4.9-9.5,8.5
		c-1.6,3.6-2,7.6-1,11.3c1.1,3.6,3.3,6.8,6.5,8.8c3.3,1.9,7.6,2.6,12.6,1.3c1.1-0.3,2.2-0.6,3.2-1.1c0,0,0.4,1.5,0.9,3.6
		c0.3,1.1,0.6,2.4,0.9,3.7c0.4,1.4,0.8,2.8,1.3,4.2c0.4,1.4,0.9,2.9,1.3,4.2c0.2,0.7,0.4,1.3,0.6,1.9c0.2,0.6,0.4,1.2,0.6,1.7
		c0.7,2.1,1.2,3.6,1.2,3.6l-13.8,4.8c0,0,0.6,0.7,1.6,2c0.5,0.6,1.1,1.4,1.8,2.3c0.7,0.9,1.6,1.8,2.5,2.9c1.8,2.1,3.9,4.5,6.2,7
		c2.3,2.4,4.8,5,7.3,7.6c5.1,5,10.2,9.9,14.2,13.3c2,1.7,3.6,3.2,4.8,4.1c1.2,1,1.9,1.5,1.9,1.5s-0.1-0.9-0.4-2.3
		C98.4,469.5,98.1,467.4,97.8,464.8z"/>
	<path class="st5" d="M86.1,256.1c3.5,1.7,7.2,2.1,10.4,1.4c3.2-0.7,5.9-2.4,7.5-5c0.8-1.3,1.2-2.8,1.3-4.3c0.1-1.5-0.1-3.1-0.6-4.7
		c-1-3.1-3.2-6.2-6.4-8.4c-3.2-2.2-6.9-3-10.3-2.4c-1.7,0.3-3.3,0.9-4.7,1.9c-1.4,0.9-2.7,2.2-3.6,3.8c-1.8,3.1-2,6.8-0.8,10
		C80.1,251.6,82.6,254.4,86.1,256.1z"/>
	<path class="st5" d="M128.8,499.6c0.4-1.6,0.5-3.2,0.3-4.8c-0.2-1.5-0.8-3-1.7-4.4c-1.8-2.7-4.7-4.2-8.1-4.6
		c-3.3-0.4-7,0.4-10.2,2.5c-3.3,2.1-5.5,5.2-6.4,8.5c-0.9,3.3-0.4,6.8,1.5,9.7c1,1.5,2.3,2.6,3.7,3.4c1.5,0.8,3.1,1.3,4.8,1.5
		c3.4,0.3,7-0.7,10.1-3C125.9,506.1,127.9,502.9,128.8,499.6z"/>
	<path class="st5" d="M105.7,224.9c4.4,3.4,9.6,5,14.2,5.2c4.7,0.1,8.9-1.3,11.9-4.4c2.9-3.1,4.2-7.4,3.8-12.1
		c-0.3-4.7-2.2-9.7-5.8-13.9c-3.6-4.2-8.5-6.8-13.5-7.2c-5-0.4-10.1,1.3-13.8,5.2c-3.7,3.9-5.2,9.1-4.6,14.1
		C98.5,216.7,101.3,221.5,105.7,224.9z"/>
	<path class="st0" d="M346.6,679.1c-2.2-2.6-4.4-5.3-6.4-7.8c-2-2.5-3.9-4.8-5.5-6.8c-3.2-4-5.3-6.7-5.3-6.7l-7.4,12.6
		c0,0-5.9-3.5-11.8-7.1c-3-1.7-5.8-3.6-8-5c-2.2-1.4-3.6-2.3-3.6-2.3c0-3.9-0.6-7.7-1.4-11.4c-0.8-3.7-2-7.2-3.1-10.1
		c-2.3-6-4.5-10-4.5-10s-4.6-0.6-10.9-0.3c-3.2,0.1-6.8,0.4-10.6,1c-3.7,0.6-7.5,1.5-11.1,3c0,0-4.8-3.4-9.5-6.8
		c-4.7-3.5-9.4-7-9.4-7s0.1-1.1,0.1-2.8c0.1-1.7,0.2-4,0.4-6.2c0.3-4.5,0.6-9,0.6-9s-0.6-0.4-1.5-1.2c-1-0.8-2.3-1.8-3.9-3.1
		c-1.6-1.3-3.5-2.8-5.6-4.4c-2-1.6-4.2-3.4-6.3-5.1c-2.1-1.7-4.2-3.6-6.2-5.2c-2-1.7-3.8-3.2-5.4-4.6c-3.1-2.7-5.2-4.5-5.2-4.5
		s-0.8,6-1.6,12.1c-0.8,6.1-1.4,12.2-1.4,12.2s-5.9,1.7-11.9,3.2c-6,1.5-12,3-12,3s2.2,1.9,5.5,4.8c1.7,1.5,3.6,3.1,5.7,4.9
		c2.1,1.8,4.3,3.7,6.6,5.5c2.3,1.9,4.5,3.7,6.7,5.5c2.1,1.7,4.2,3.3,5.9,4.7c1.7,1.4,3.2,2.5,4.2,3.3c1,0.8,1.6,1.2,1.6,1.2
		s4.4-1.4,8.7-2.8c2.2-0.7,4.3-1.4,6-1.9c1.6-0.5,2.7-0.9,2.7-0.9s3.9,2.9,7.9,5.8c4,2.9,7.9,5.7,7.9,5.7c-0.8,0.8-1.5,1.7-2.2,2.6
		c-6,8.4-4.1,16.6,1.2,21.1c5.4,4.4,14.1,5.1,21.5-1.4c-3.2,9.3,0.8,17,7,20.3c6.2,3.2,14.5,1.8,20-7c0.6-1,1.1-2,1.6-3
		c0,0,1.3,0.8,3.1,2c1.9,1.2,4.4,2.7,6.9,4.2c5.1,3,10.1,6.1,10.1,6.1l-7.4,12.6c0,0,3.5,0.6,8.7,1.5c2.6,0.4,5.6,0.9,8.9,1.5
		c3.2,0.5,6.7,1,10.2,1.5c6.9,1.1,13.8,1.9,19,2.6c5.2,0.6,8.6,1,8.6,1s-2.3-2.6-5.7-6.5C355.5,689.6,351,684.4,346.6,679.1z"/>
	<path class="st5" d="M183.6,561.5c0.2-3.3-0.8-6.5-3.2-8.8c-2.4-2.3-5.5-3.3-8.8-3c-3.3,0.3-6.8,1.8-9.6,4.5
		c-2.8,2.7-4.3,6.1-4.6,9.5c-0.2,3.4,0.8,6.7,3.3,9.1c2.5,2.4,5.8,3.4,9.2,3.1c3.4-0.3,6.8-1.9,9.5-4.8
		C182,568.3,183.4,564.8,183.6,561.5z"/>
	<path class="st5" d="M398,700.3c-5.9-2.9-13.5,0.4-17,7.3c-3.5,6.9-1.4,15,4.8,18c6.1,3,13.8-0.4,17.1-7.5
		C406.1,711.1,403.9,703.1,398,700.3z"/>
	<path class="st5" d="M157,518.7c-2.9-3.5-7.4-5.2-12.1-5.3c-4.8-0.1-9.9,1.6-14.3,5c-4.4,3.5-7.1,8.2-7.9,13
		c-0.8,4.9,0.4,9.8,3.7,13.7c3.3,3.8,8,5.8,12.9,5.7c4.9-0.1,10-2,14.1-5.9c4.1-3.8,6.5-8.7,7.2-13.4C161,526.9,160,522.2,157,518.7
		z"/>
	<path class="st3" d="M431.6,319.3C377.7,140,108.3,155.4,108.3,350.4s323.3,334.1,323.3,334.1s323.3-139.1,323.3-334.1
		S485.4,140,431.6,319.3z"/>
	<path class="st0" d="M462.4,228.6c-1.1-1.3-2.5-2.4-4.1-3.3c-0.8-0.4-1.6-0.8-2.5-1.1c-0.9-0.3-1.8-0.5-2.7-0.6
		c-3.7-0.5-7.6,0-10.8,1.9c-3.3,1.9-5.9,4.8-7.2,9c-1.3-4.1-3.9-7.1-7.2-8.9c-3.3-1.9-7.2-2.4-10.8-1.9c-3.6,0.5-7,2.3-9.3,5
		c-2.3,2.7-3.4,6.4-2.7,10.8c0.6,4.5,3,8.3,6.1,11.8c1.5,1.7,3.3,3.3,5,4.8c1.8,1.5,3.6,2.9,5.4,4.1c1.8,1.3,3.5,2.3,5.2,3.3
		c1.6,1,3.1,1.9,4.3,2.6c2.5,1.4,4.1,2.2,4.1,2.2s1.6-0.8,4.1-2.2c1.2-0.7,2.7-1.6,4.3-2.7c1.6-1,3.3-2.1,5.1-3.4
		c1.8-1.2,3.6-2.7,5.4-4.2c1.8-1.5,3.5-3,5-4.8c3.1-3.5,5.5-7.4,6.1-11.8C465.8,234.9,464.7,231.3,462.4,228.6z"/>
	<path class="st0" d="M445.8,715.8c-0.6-0.7-1.4-1.4-2.3-1.8c-0.4-0.2-0.9-0.4-1.4-0.6c-0.5-0.1-1-0.3-1.5-0.3c-2-0.3-4.2,0-6.1,1.1
		c-1.8,1-3.3,2.7-4,5c-0.7-2.3-2.2-4-4-5c-1.8-1.1-4-1.3-6.1-1c-2,0.3-3.9,1.3-5.2,2.8c-1.3,1.5-1.9,3.6-1.5,6.1
		c0.3,2.5,1.7,4.7,3.4,6.6c0.9,1,1.8,1.8,2.8,2.7c1,0.8,2,1.6,3,2.3c1,0.7,2,1.3,2.9,1.9c0.9,0.6,1.7,1.1,2.4,1.5
		c1.4,0.8,2.3,1.2,2.3,1.2s0.9-0.4,2.3-1.2c0.7-0.4,1.5-0.9,2.4-1.5c0.9-0.6,1.9-1.2,2.9-1.9c1-0.7,2-1.5,3-2.3
		c1-0.8,1.9-1.7,2.8-2.7c1.7-1.9,3.1-4.1,3.4-6.6C447.7,719.3,447,717.3,445.8,715.8z"/>
</g>
</svg>
