<?xml version="1.0" encoding="utf-8"?>
<!-- Generator: Adobe Illustrator 26.5.0, SVG Export Plug-In . SVG Version: 6.00 Build 0)  -->
<svg version="1.1" id="Layer_1" xmlns="http://www.w3.org/2000/svg" xmlns:xlink="http://www.w3.org/1999/xlink" x="0px" y="0px"
	 viewBox="0 0 32 32" style="enable-background:new 0 0 32 32;" xml:space="preserve">
<style type="text/css">
	.st0{fill:#95EFEF;}
</style>
<g id="_01">
	<path class="st0" d="M16,30C8.3,30,2,23.7,2,16S8.3,2,16,2s14,6.3,14,14c0,0.6-0.4,1-1,1s-1-0.4-1-1c0-6.6-5.4-12-12-12
		C9.3,4,4,9.4,4,16.1c0,6.6,5.4,12,12,12c5.3,0,9.9-3.5,11.5-8.5c0.1-0.5,0.7-0.9,1.2-0.7c0.5,0.1,0.9,0.7,0.7,1.2v0.1
		C27.6,26,22.2,30,16,30z"/>
	<path class="st0" d="M13.7,20.5c-0.6,0-1-0.4-1-1v-7c0-0.6,0.4-1,1-1s1,0.4,1,1v7C14.7,20.1,14.2,20.5,13.7,20.5z"/>
	<path class="st0" d="M18.3,20.5c-0.6,0-1-0.4-1-1v-7c0-0.6,0.4-1,1-1s1,0.4,1,1v7C19.3,20.1,18.9,20.5,18.3,20.5z"/>
</g>
</svg>
