<?xml version="1.0" encoding="utf-8"?>
<!-- Generator: Adobe Illustrator 26.5.0, SVG Export Plug-In . SVG Version: 6.00 Build 0)  -->
<svg version="1.1" id="Layer_1" xmlns="http://www.w3.org/2000/svg" xmlns:xlink="http://www.w3.org/1999/xlink" x="0px" y="0px"
	 viewBox="0 0 300 300" style="enable-background:new 0 0 300 300;" xml:space="preserve">
<style type="text/css">
	.st0{fill:#F297D6;}
</style>
<g>
	<g>
		<path class="st0" d="M150,0C67.2,0,0,67.2,0,150s67.2,150,150,150s150-67.2,150-150S232.8,0,150,0z M195.7,160.2
			c-0.7,0.7-1.5,1.3-2.4,1.9L137,218.3c-2.7,2.7-6.3,4.1-9.9,4.1s-7.2-1.4-9.9-4.1c-5.5-5.5-5.5-14.3,0-19.8l48.5-48.5l-48.3-48.3
			c-5.5-5.5-5.5-14.3,0-19.8s14.3-5.5,19.8,0l56,56c0.8,0.5,1.6,1.2,2.4,1.9c2.8,2.8,4.1,6.5,4.1,10.1
			C199.9,153.7,198.5,157.4,195.7,160.2z"/>
	</g>
</g>
</svg>
