<?xml version="1.0" encoding="utf-8"?>
<!-- Generator: Adobe Illustrator 26.5.0, SVG Export Plug-In . SVG Version: 6.00 Build 0)  -->
<svg version="1.1" id="Capa_1" xmlns="http://www.w3.org/2000/svg" xmlns:xlink="http://www.w3.org/1999/xlink" x="0px" y="0px"
	 viewBox="0 0 462.8 462.8" style="enable-background:new 0 0 462.8 462.8;" xml:space="preserve">
<style type="text/css">
	.st0{fill:#95EFEF;}
	.st1{fill:#F297D6;}
	.st2{fill:none;stroke:#000000;stroke-width:20;stroke-linejoin:round;stroke-miterlimit:10;}
</style>
<g>
	<g>
		<g id="XMLID_29_">
			<g>
				<polygon class="st0" points="236.8,38 236.8,84.2 139.3,56.3 139.3,10 				"/>
				<path class="st0" d="M417.7,367.5c5.9,5.9,8.8,13.6,8.8,21.3c0,7.7-3,15.4-8.8,21.3L375,452.8l-42.6-42.6
					c-5.9-5.9-8.8-13.6-8.8-21.3c0-7.7,3-15.4,8.8-21.3c11.8-11.8,30.9-11.8,42.6,0c5.9-5.9,13.6-8.8,21.3-8.8
					C404.1,358.7,411.8,361.6,417.7,367.5z"/>
				<path class="st0" d="M252.2,325c5.9,5.9,8.8,13.6,8.8,21.3s-3,15.4-8.8,21.3l-42.6,42.6l-42.6-42.6c-5.9-5.9-8.8-13.6-8.8-21.3
					s2.9-15.4,8.8-21.3c11.8-11.8,30.9-11.8,42.6,0c5.9-5.9,13.6-8.8,21.3-8.8C238.6,316.2,246.3,319.1,252.2,325z"/>
				<polygon class="st1" points="426.5,214.2 426.5,260.5 261.1,211 261.1,164.7 				"/>
				<path class="st1" d="M130.4,170.3c5.9,5.9,8.8,13.6,8.8,21.3c0,7.7-2.9,15.4-8.8,21.3l-42.7,42.6l-42.6-42.6
					c-5.9-5.9-8.8-13.6-8.8-21.3c0-7.7,3-15.4,8.8-21.3c11.8-11.8,30.9-11.8,42.6,0c5.9-5.9,13.6-8.8,21.3-8.8
					C116.8,161.5,124.5,164.4,130.4,170.3z"/>
			</g>
			<g>
				<path class="st2" d="M375,367.5c-11.8-11.8-30.9-11.8-42.6,0c-5.9,5.9-8.8,13.6-8.8,21.3c0,7.7,3,15.4,8.8,21.3l42.6,42.6
					l42.6-42.6c5.9-5.9,8.8-13.6,8.8-21.3c0-7.7-3-15.4-8.8-21.3c-5.9-5.9-13.6-8.8-21.3-8.8C388.6,358.7,380.9,361.6,375,367.5z"/>
				<path class="st2" d="M209.6,325c-11.8-11.8-30.9-11.8-42.6,0c-5.9,5.9-8.8,13.6-8.8,21.3s2.9,15.4,8.8,21.3l42.6,42.6l42.7-42.6
					c5.9-5.9,8.8-13.6,8.8-21.3s-3-15.4-8.8-21.3c-5.9-5.9-13.6-8.8-21.3-8.8C223.2,316.2,215.5,319.1,209.6,325z"/>
				<polyline class="st2" points="261.1,342 261.1,211 261.1,164.7 426.5,214.2 426.5,260.5 426.5,388.8 				"/>
				<line class="st2" x1="261.1" y1="211" x2="426.5" y2="260.5"/>
				<path class="st2" d="M87.8,170.3c-11.8-11.8-30.9-11.8-42.6,0c-5.9,5.9-8.8,13.6-8.8,21.3c0,7.7,3,15.4,8.8,21.3l42.6,42.6
					l42.6-42.6c5.9-5.9,8.8-13.6,8.8-21.3c0-7.7-2.9-15.4-8.8-21.3c-5.9-5.9-13.6-8.8-21.3-8.8C101.4,161.5,93.7,164.4,87.8,170.3z"
					/>
				<line class="st2" x1="139.3" y1="56.3" x2="139.3" y2="187.3"/>
				<polygon class="st2" points="139.3,56.3 236.8,84.2 236.8,38 139.3,10 				"/>
			</g>
		</g>
	</g>
</g>
</svg>
